<?xml version="1.0" encoding="UTF-8"?>
<!DOCTYPE svg PUBLIC "-//W3C//DTD SVG 1.1//EN" "http://www.w3.org/Graphics/SVG/1.1/DTD/svg11.dtd">
<!-- Creator: CorelDRAW X8 -->
<svg xmlns="http://www.w3.org/2000/svg" xml:space="preserve" version="1.1" style="shape-rendering:geometricPrecision; text-rendering:geometricPrecision; image-rendering:optimizeQuality; fill-rule:evenodd; clip-rule:evenodd"
viewBox="0 0 6913 6913"
 xmlns:xlink="http://www.w3.org/1999/xlink">
 <defs>
  <style type="text/css">
   <![CDATA[
    .str0 {stroke:#000000;stroke-width:223.013}
    .fil1 {fill:#FFFFFF}
    .fil0 {fill:#000000}
   ]]>
  </style>
 </defs>
 <g id="Ebene_x0020_1">
  <metadata id="CorelCorpID_0Corel-Layer"/>
  <g id="_2565011503328">
   <rect class="fil0 str0" x="111" y="112" width="6690" height="6690" rx="55" ry="67"/>
   <path class="fil1" d="M3986 2306c125,-4 250,0 375,-1 15,0 31,0 52,0l0 -649c-67,-6 -137,-16 -207,-19 -128,-6 -256,-13 -384,-10 -196,5 -381,52 -542,168 -186,134 -288,321 -326,542 -16,91 -21,186 -23,279 -4,145 -1,291 0,437l0 54 -622 0 0 725 618 0 0 1823 755 0 0 -1820 615 0c32,-241 62,-480 95,-728 -50,0 -94,0 -139,0 -175,0 -576,0 -576,0 0,0 1,-359 6,-516 6,-213 132,-278 303,-285z"/>
  </g>
 </g>
</svg>
