<?xml version="1.0" encoding="UTF-8"?>
<!DOCTYPE svg PUBLIC "-//W3C//DTD SVG 1.1//EN" "http://www.w3.org/Graphics/SVG/1.1/DTD/svg11.dtd">
<!-- Creator: CorelDRAW X8 -->
<svg xmlns="http://www.w3.org/2000/svg" xml:space="preserve" width="20mm" height="20mm" version="1.1" style="shape-rendering:geometricPrecision; text-rendering:geometricPrecision; image-rendering:optimizeQuality; fill-rule:evenodd; clip-rule:evenodd"
viewBox="0 0 7837 7837"
 xmlns:xlink="http://www.w3.org/1999/xlink">
 <defs>
  <style type="text/css">
   <![CDATA[
    .str0 {stroke:#000000;stroke-width:252.819}
    .fil0 {fill:#000000}
    .fil1 {fill:#FFFFFF;fill-rule:nonzero}
   ]]>
  </style>
 </defs>
 <g id="Ebene_x0020_1">
  <metadata id="CorelCorpID_0Corel-Layer"/>
  <g id="_2565018983088">
   <rect class="fil0 str0" x="126" y="126" width="7585" height="7585" rx="62" ry="76"/>
   <path class="fil1" d="M5370 2730c0,147 -120,266 -266,265 -147,0 -266,-119 -265,-266 0,-147 119,-265 266,-265 147,0 265,120 265,266zm-1453 1911c-405,-4 -730,-335 -727,-740 4,-406 335,-731 741,-728 405,4 731,336 727,741 -4,405 -335,731 -741,727zm8 -1868c-627,0 -1135,508 -1135,1135 -1,626 507,1135 1134,1135 627,0 1135,-507 1136,-1134 0,-627 -508,-1135 -1135,-1136zm1770 2244c-60,387 -316,626 -705,669 -357,39 -1951,61 -2282,-32 -317,-89 -498,-307 -551,-625 -50,-305 -63,-1827 -1,-2234 59,-383 315,-623 702,-666 392,-44 1803,-48 2179,9 385,59 624,316 667,706 39,363 50,1783 -9,2173zm407 -2211c-30,-292 -141,-549 -358,-756 -227,-217 -506,-313 -811,-330 -521,-28 -1756,-46 -2190,25 -495,81 -820,370 -957,860 -106,376 -85,2112 -23,2484 84,509 384,836 889,966 349,90 2065,78 2450,16 510,-83 837,-382 970,-885 101,-387 66,-2032 30,-2380z"/>
   <path class="fil1" d="M5370 2730c0,147 -120,266 -266,265 -147,0 -266,-119 -265,-266 0,-147 119,-265 266,-265 147,0 265,120 265,266zm-1453 1911c-405,-4 -730,-335 -727,-740 4,-406 335,-731 741,-728 405,4 731,336 727,741 -4,405 -335,731 -741,727zm8 -1868c-627,0 -1135,508 -1135,1135 -1,626 507,1135 1134,1135 627,0 1135,-507 1136,-1134 0,-627 -508,-1135 -1135,-1136zm1770 2244c-60,387 -316,626 -705,669 -357,39 -1951,61 -2282,-32 -317,-89 -498,-307 -551,-625 -50,-305 -63,-1827 -1,-2234 59,-383 315,-623 702,-666 392,-44 1803,-48 2179,9 385,59 624,316 667,706 39,363 50,1783 -9,2173zm407 -2211c-30,-292 -141,-549 -358,-756 -227,-217 -506,-313 -811,-330 -521,-28 -1756,-46 -2190,25 -495,81 -820,370 -957,860 -106,376 -85,2112 -23,2484 84,509 384,836 889,966 349,90 2065,78 2450,16 510,-83 837,-382 970,-885 101,-387 66,-2032 30,-2380z"/>
  </g>
 </g>
</svg>
