<?xml version="1.0" encoding="UTF-8"?>
<!DOCTYPE svg PUBLIC "-//W3C//DTD SVG 1.1//EN" "http://www.w3.org/Graphics/SVG/1.1/DTD/svg11.dtd">
<!-- Creator: CorelDRAW X8 -->
<svg xmlns="http://www.w3.org/2000/svg" xml:space="preserve" width="20mm" height="20mm" version="1.1" style="shape-rendering:geometricPrecision; text-rendering:geometricPrecision; image-rendering:optimizeQuality; fill-rule:evenodd; clip-rule:evenodd"
viewBox="0 0 5594 5594"
 xmlns:xlink="http://www.w3.org/1999/xlink">
 <defs>
  <style type="text/css">
   <![CDATA[
    .str0 {stroke:#000000;stroke-width:180.463}
    .fil0 {fill:#000000}
    .fil1 {fill:#FFFFFF;fill-rule:nonzero}
   ]]>
  </style>
 </defs>
 <g id="Ebene_x0020_1">
  <metadata id="CorelCorpID_0Corel-Layer"/>
  <g id="_2565011505344">
   <rect class="fil0 str0" x="90" y="90" width="5414" height="5414" rx="44" ry="54"/>
   <path class="fil1" d="M1751 1446c180,0 326,146 326,325 0,180 -146,327 -326,327 -180,0 -326,-147 -326,-327 0,-179 146,-325 326,-325zm-281 898l563 0 0 1809 -563 0 0 -1809z"/>
   <path class="fil1" d="M2385 2344l539 0 0 248 8 0c75,-143 258,-292 532,-292 569,0 674,374 674,861l0 992 -562 0 0 -879c0,-210 -4,-480 -292,-480 -292,0 -337,228 -337,464l0 895 -562 0 0 -1809z"/>
  </g>
 </g>
</svg>
