<?xml version="1.0" encoding="UTF-8"?>
<!DOCTYPE svg PUBLIC "-//W3C//DTD SVG 1.1//EN" "http://www.w3.org/Graphics/SVG/1.1/DTD/svg11.dtd">
<!-- Creator: CorelDRAW X8 -->
<svg xmlns="http://www.w3.org/2000/svg" xml:space="preserve" width="20mm" height="20.0003mm" version="1.1" style="shape-rendering:geometricPrecision; text-rendering:geometricPrecision; image-rendering:optimizeQuality; fill-rule:evenodd; clip-rule:evenodd"
viewBox="0 0 6184 6184"
 xmlns:xlink="http://www.w3.org/1999/xlink">
 <defs>
  <style type="text/css">
   <![CDATA[
    .str0 {stroke:#000000;stroke-width:199.494}
    .fil1 {fill:#FFFFFF}
    .fil0 {fill:#000000}
   ]]>
  </style>
 </defs>
 <g id="Ebene_x0020_1">
  <metadata id="CorelCorpID_0Corel-Layer"/>
  <g id="_2565011500672">
   <rect class="fil0 str0" x="100" y="100" width="5985" height="5985" rx="49" ry="60"/>
   <path class="fil1" d="M2872 3599l-8 27c-128,502 -142,613 -274,847 -63,110 -134,215 -212,316 -9,11 -17,26 -35,22 -19,-4 -20,-21 -23,-37 -21,-152 -32,-305 -27,-459 6,-201 31,-270 290,-1358 4,-16 0,-30 -6,-45 -62,-167 -74,-336 -20,-508 117,-371 538,-400 611,-93 45,189 -75,437 -167,803 -76,302 280,517 584,296 280,-203 389,-691 369,-1036 -41,-689 -797,-838 -1276,-616 -549,254 -674,935 -426,1246 31,40 56,64 45,104 -16,63 -30,125 -47,187 -13,46 -52,63 -98,44 -92,-37 -168,-95 -230,-172 -210,-261 -271,-777 8,-1213 309,-484 883,-680 1407,-621 626,71 1021,499 1095,984 34,221 10,766 -300,1152 -357,442 -936,472 -1203,200 -21,-21 -37,-45 -57,-70z"/>
  </g>
 </g>
</svg>
