<?xml version="1.0" standalone="no"?>
<!DOCTYPE svg PUBLIC "-//W3C//DTD SVG 20010904//EN"
 "http://www.w3.org/TR/2001/REC-SVG-20010904/DTD/svg10.dtd">
<svg version="1.0" xmlns="http://www.w3.org/2000/svg"
 width="300.000000pt" height="300.000000pt" viewBox="0 0 300.000000 300.000000"
 preserveAspectRatio="xMidYMid meet">
<metadata>
Created by potrace 1.14, written by Peter Selinger 2001-2017
</metadata>
<g transform="translate(0.000000,300.000000) scale(0.100000,-0.100000)"
fill="#000000" stroke="none">
<path d="M363 1500 l2 -945 100 0 100 0 2 585 c1 322 2 628 3 682 l0 96 63
-66 c34 -37 64 -69 67 -72 3 -3 32 -34 65 -70 33 -36 112 -121 176 -190 111
-119 205 -221 259 -280 14 -15 68 -74 120 -130 52 -56 106 -115 120 -130 171
-185 236 -255 294 -317 38 -40 75 -81 82 -90 11 -15 13 4 14 127 l0 146 -47
51 c-27 28 -113 122 -193 209 -79 88 -163 179 -186 204 -43 46 -77 83 -149
162 -163 177 -251 274 -260 284 -5 6 -48 53 -95 104 -84 91 -100 110 -184 200
-22 25 -84 92 -136 150 -52 57 -123 134 -157 170 l-63 65 3 -945z"/>
<path d="M2041 2370 c-13 -8 -10 -1808 3 -1813 6 -2 54 -3 106 -3 l95 1 3 458
2 457 368 0 368 0 -1 103 0 102 -360 1 c-198 1 -363 2 -367 3 -5 1 -8 158 -8
349 l0 348 -100 0 c-55 0 -104 -2 -109 -6z"/>
</g>
</svg>
