<?xml version="1.0" encoding="UTF-8"?>
<!DOCTYPE svg PUBLIC "-//W3C//DTD SVG 1.1//EN" "http://www.w3.org/Graphics/SVG/1.1/DTD/svg11.dtd">
<!-- Creator: CorelDRAW X8 -->
<svg xmlns="http://www.w3.org/2000/svg" xml:space="preserve" version="1.1" style="shape-rendering:geometricPrecision; text-rendering:geometricPrecision; image-rendering:optimizeQuality; fill-rule:evenodd; clip-rule:evenodd"
 preserveAspectRatio="xMinYMin slice"
 viewBox="0 0 39831 13871"
 xmlns:xlink="http://www.w3.org/1999/xlink">
 <defs>
  <style type="text/css">
   <![CDATA[
    .logo-color {fill:var(--inline--logo-color);fill-rule:nonzero}
    .text-color {fill:var(--inline--text-color);fill-rule:nonzero}
   ]]>
  </style>
 </defs>
 <g id="Ebene_x0020_1">
  <metadata id="CorelCorpID_0Corel-Layer"/>
  <path class="logo-color" d="M9905 12775l0 -10785 1283 0 0 4148 4356 0 0 1222 -4356 0 0 5415 -1283 0zm-9905 0l0 -11207 7888 8615 824 894 -2 1687 -7488 -8091 0 8102 -1222 0z"/>
  <path class="text-color" d="M16658 2981l0 2861 -263 0 0 -2861 263 0zm-132 -1015c72,0 134,26 185,77 52,50 78,111 78,183 0,73 -26,136 -78,187 -51,51 -113,76 -185,76 -71,0 -133,-25 -185,-76 -51,-51 -77,-114 -77,-187 0,-72 26,-133 77,-183 52,-51 114,-77 185,-77z"/>
  <path id="1" class="text-color" d="M18020 3619l0 2223 -262 0 0 -2861 262 0 0 184c239,-238 517,-356 833,-356 339,0 613,106 825,318 212,211 320,478 326,801l0 1914 -261 0 0 -1890c0,-244 -89,-451 -265,-623 -175,-172 -384,-258 -625,-258 -240,0 -448,85 -623,254 -96,94 -165,193 -210,294z"/>
  <polygon id="2" class="text-color" points="21455,2981 21455,1763 21716,1763 21716,2981 22299,2981 22299,3243 21716,3243 21716,5842 21455,5842 21455,3243 20872,3243 20872,2981 "/>
  <path id="3" class="text-color" d="M23711 5306c246,225 540,338 880,338 365,0 677,-129 936,-387 33,-33 64,-67 92,-102l278 99c-51,69 -109,137 -172,200 -313,314 -691,470 -1134,470 -441,0 -818,-156 -1131,-470 -312,-312 -468,-690 -468,-1132 0,-442 156,-819 468,-1131 313,-313 690,-470 1131,-470 379,0 710,115 994,341 46,39 93,82 140,129 17,18 34,34 50,52l-199 198 -1865 1865zm1673 -2043c-228,-175 -492,-261 -793,-261 -363,0 -674,128 -932,386 -258,256 -388,568 -388,934 0,300 88,565 263,792l1850 -1851z"/>
  <path id="4" class="text-color" d="M26764 2981l261 0 0 521c55,-78 118,-152 190,-224 231,-232 468,-353 710,-364l0 286c-165,8 -335,99 -512,276 -249,247 -378,543 -388,889l0 1477 -261 0 0 -2861z"/>
  <path id="5" class="text-color" d="M29056 2981l0 2861 -263 0 0 -2861 263 0zm-132 -1015c72,0 134,26 185,77 52,50 78,111 78,183 0,73 -26,136 -78,187 -51,51 -113,76 -185,76 -71,0 -133,-25 -185,-76 -51,-51 -77,-114 -77,-187 0,-72 26,-133 77,-183 52,-51 114,-77 185,-77z"/>
  <path id="6" class="text-color" d="M31581 2721c442,0 820,157 1131,470 313,312 468,690 468,1133 0,441 -155,818 -468,1130 -311,314 -689,470 -1131,470 -441,0 -818,-156 -1131,-470 -313,-312 -469,-689 -469,-1130 0,-443 156,-821 469,-1133 313,-313 690,-470 1131,-470zm0 281c-366,0 -678,128 -935,387 -259,258 -388,570 -388,935 0,365 129,677 388,934 257,257 569,386 935,386 365,0 677,-129 935,-386 258,-257 387,-569 387,-934 0,-365 -129,-677 -387,-935 -258,-259 -570,-387 -935,-387z"/>
  <path id="7" class="text-color" d="M34048 2981l261 0 0 521c55,-78 118,-152 190,-224 231,-232 468,-353 710,-364l0 286c-165,8 -335,99 -512,276 -249,247 -378,543 -388,889l0 1477 -261 0 0 -2861z"/>
  <path id="8" class="text-color" d="M16599 8390l0 4117 21 0c691,0 1222,-187 1593,-560 414,-414 621,-914 621,-1501 0,-584 -207,-1085 -621,-1500 -371,-372 -902,-556 -1593,-556l-21 0zm0 -269l21 0c767,0 1361,212 1783,636 466,468 699,1031 699,1689 0,661 -233,1225 -699,1690 -422,424 -1016,636 -1783,636l-21 0 0 6 -261 0 0 -4663 261 0 0 6z"/>
  <polygon id="9" class="text-color" points="22162,8115 22162,8378 20093,8378 20093,10315 22162,10315 22162,10578 20093,10578 20093,12515 22162,12515 22162,12778 19831,12778 19831,8115 "/>
  <path id="10" class="text-color" d="M24122 10196c-332,-111 -594,-262 -787,-455 -192,-192 -288,-425 -288,-699 0,-268 96,-498 288,-692 193,-193 426,-290 701,-290 271,0 504,96 699,289 106,102 180,219 220,347l-235 92c-35,-94 -93,-182 -172,-261 -142,-140 -313,-210 -512,-210 -201,0 -371,70 -514,211 -142,141 -213,312 -213,514 0,200 71,371 213,513 133,130 315,250 548,358 373,121 687,309 941,562 271,269 405,593 405,974 0,383 -134,709 -405,979 -269,270 -595,405 -975,405 -381,0 -707,-136 -977,-407 -216,-216 -345,-467 -387,-752l248 -91c27,253 134,473 323,662 219,219 483,329 793,329 310,0 575,-110 794,-329 220,-220 329,-485 329,-796 0,-309 -109,-573 -329,-793 -192,-192 -427,-346 -708,-460z"/>
  <polygon id="11" class="text-color" points="26320,8115 26320,12778 26057,12778 26057,8115 "/>
  <path id="12" class="text-color" d="M31154 12198c-443,423 -972,635 -1587,635 -661,0 -1224,-232 -1689,-698 -466,-465 -699,-1028 -699,-1689 0,-658 233,-1220 699,-1686 465,-467 1028,-700 1689,-700 615,0 1150,207 1605,621l-198 180c-401,-355 -869,-533 -1407,-533 -585,0 -1085,207 -1498,620 -414,414 -621,914 -621,1498 0,587 207,1087 621,1501 413,414 913,621 1498,621 501,0 942,-154 1325,-464l0 -1421 262 0 0 1515z"/>
  <polygon id="13" class="text-color" points="31973,8115 32261,8115 34657,12261 34657,8115 34918,8115 34918,12778 34657,12778 32235,8591 32235,12778 31973,12778 "/>
 </g>
</svg>
