<?xml version="1.0" encoding="UTF-8"?>
<!DOCTYPE svg PUBLIC "-//W3C//DTD SVG 1.1//EN" "http://www.w3.org/Graphics/SVG/1.1/DTD/svg11.dtd">
<!-- Creator: CorelDRAW X8 -->
<svg xmlns="http://www.w3.org/2000/svg" xml:space="preserve" version="1.1" style="shape-rendering:geometricPrecision; text-rendering:geometricPrecision; image-rendering:optimizeQuality; fill-rule:evenodd; clip-rule:evenodd"
preserveAspectRatio="xMinYMin slice"
viewBox="0 0 360 139"
 xmlns:xlink="http://www.w3.org/1999/xlink">
 <defs>
  <style type="text/css">
   <![CDATA[
    .logo-color {fill:var(--inline--logo-color);fill-rule:nonzero}
    .text-color {fill:var(--inline--text-color);fill-rule:nonzero}
   ]]>
  </style>
 </defs>
 <g id="Ebene_x0020_1">
  <metadata id="CorelCorpID_0Corel-Layer"/>
  <path class="logo-color" d="M99 128l0 -108 13 0 0 41 43 0 0 13 -43 0 0 54 -13 0zm-99 0l0 -112 79 86 8 9 0 17 -75 -81 0 81 -12 0z"/>
  <path class="text-color" d="M167 30l0 28 -3 0 0 -28 3 0zm-2 -10c1,0 2,0 2,0 1,1 1,2 1,2 0,1 0,2 -1,2 0,1 -1,1 -2,1 0,0 -1,0 -2,-1 0,0 0,-1 0,-2 0,0 0,-1 0,-2 1,0 2,0 2,0z"/>
  <path id="1" class="text-color" d="M180 36l0 22 -2 0 0 -28 2 0 0 2c3,-3 5,-4 9,-4 3,0 6,1 8,3 2,2 3,5 3,8l0 19 -3 0 0 -18c0,-3 0,-5 -2,-7 -2,-1 -4,-2 -6,-2 -3,0 -5,1 -7,2 -1,1 -1,2 -2,3z"/>
  <polygon id="2" class="text-color" points="215,30 215,18 217,18 217,30 223,30 223,32 217,32 217,58 215,58 215,32 209,32 209,30 "/>
  <path id="3" class="text-color" d="M237 53c3,2 6,3 9,3 4,0 7,-1 9,-3 1,-1 1,-1 1,-1l3 1c-1,0 -1,1 -2,2 -3,3 -7,4 -11,4 -4,0 -8,-1 -11,-4 -4,-4 -5,-7 -5,-12 0,-4 1,-8 5,-11 3,-3 7,-5 11,-5 4,0 7,1 10,4 0,0 1,0 1,1 0,0 1,0 1,0l-2 2 -19 19zm17 -20c-2,-2 -5,-3 -8,-3 -4,0 -7,1 -9,4 -3,2 -4,6 -4,9 0,3 1,6 2,8l19 -18z"/>
  <path id="4" class="text-color" d="M268 30l2 0 0 5c1,-1 1,-2 2,-2 2,-3 5,-4 7,-4l0 3c-1,0 -3,1 -5,3 -2,2 -4,5 -4,9l0 14 -2 0 0 -28z"/>
  <path id="5" class="text-color" d="M291 30l0 28 -3 0 0 -28 3 0zm-2 -10c1,0 2,0 2,0 1,1 1,2 1,2 0,1 0,2 -1,2 0,1 -1,1 -2,1 0,0 -1,0 -2,-1 0,0 0,-1 0,-2 0,0 0,-1 0,-2 1,0 2,0 2,0z"/>
  <path id="6" class="text-color" d="M316 27c4,0 8,2 11,5 3,3 5,7 5,11 0,5 -2,8 -5,12 -3,3 -7,4 -11,4 -5,0 -8,-1 -12,-4 -3,-4 -4,-7 -4,-12 0,-4 1,-8 4,-11 4,-3 7,-5 12,-5zm0 3c-4,0 -7,1 -10,4 -2,2 -3,6 -3,9 0,4 1,7 3,10 3,2 6,3 10,3 3,0 7,-1 9,-3 3,-3 4,-6 4,-10 0,-3 -1,-7 -4,-9 -2,-3 -6,-4 -9,-4z"/>
  <path id="7" class="text-color" d="M340 30l3 0 0 5c1,-1 1,-2 2,-2 2,-3 5,-4 7,-4l0 3c-2,0 -3,1 -5,3 -3,2 -4,5 -4,9l0 14 -3 0 0 -28z"/>
  <path id="8" class="text-color" d="M166 84l0 41 0 0c7,0 12,-2 16,-6 4,-4 6,-9 6,-15 0,-5 -2,-10 -6,-15 -4,-3 -9,-5 -16,-5l0 0zm0 -3l0 0c8,0 14,2 18,7 5,4 7,10 7,16 0,7 -2,13 -7,17 -4,5 -10,7 -18,7l0 0 0 0 -3 0 0 -47 3 0 0 0z"/>
  <polygon id="9" class="text-color" points="222,81 222,84 201,84 201,103 222,103 222,106 201,106 201,125 222,125 222,128 198,128 198,81 "/>
  <path id="10" class="text-color" d="M241 102c-3,-1 -6,-3 -8,-5 -2,-2 -3,-4 -3,-7 0,-2 1,-5 3,-7 2,-1 5,-2 7,-2 3,0 5,1 7,2 1,2 2,3 3,4l-3 1c0,-1 -1,-2 -2,-3 -1,-1 -3,-2 -5,-2 -2,0 -3,1 -5,2 -1,2 -2,3 -2,5 0,2 1,4 2,6 2,1 3,2 6,3 3,1 7,3 9,6 3,2 4,6 4,9 0,4 -1,8 -4,10 -3,3 -6,4 -10,4 -3,0 -7,-1 -9,-4 -3,-2 -4,-4 -4,-7l2 -1c0,2 2,5 3,6 3,3 5,4 8,4 3,0 6,-1 8,-4 3,-2 4,-4 4,-8 0,-3 -1,-5 -4,-7 -2,-2 -4,-4 -7,-5z"/>
  <polygon id="11" class="text-color" points="263,81 263,128 261,128 261,81 "/>
  <path id="12" class="text-color" d="M312 122c-5,4 -10,6 -16,6 -7,0 -13,-2 -17,-7 -5,-4 -7,-10 -7,-17 0,-6 2,-12 7,-16 4,-5 10,-7 17,-7 6,0 11,2 16,6l-2 2c-4,-4 -9,-6 -14,-6 -6,0 -11,2 -15,6 -4,5 -7,10 -7,15 0,6 3,11 7,15 4,5 9,7 15,7 5,0 9,-2 13,-5l0 -14 3 0 0 15z"/>
  <polygon id="13" class="text-color" points="320,81 323,81 347,123 347,81 349,81 349,128 347,128 322,86 322,128 320,128 "/>
 </g>
</svg>
